# xmcd
#
# Track frame offsets: 
#        150
#        19560
#        32070
#        50753
#        63763
#        83348
#        97458
#        110618
#        123395
#        139498
#        158670
#        173918
#        185615
#
# Disc length: 2659 seconds
#
# Revision: 1
# Processed by: cddbd v1.5.2PL0 Copyright (c) Steve Scherf et al.
# Submitted via: ExactAudioCopy v0.99pb5
#
DISCID=af0a610d
DTITLE=Willie Nelson and Don Cherry - Duets
DYEAR=1994
DGENRE=
TTITLE0=My Way
TTITLE1=Augusta
TTITLE2=One More for the Road
TTITLE3=Red Sails in the Sunset
TTITLE4=Try a Little Tenderness
TTITLE5=Tangerine
TTITLE6=For Sentimental Reasons
TTITLE7=Prisoner of Love
TTITLE8=Tenderly
TTITLE9=You'll Be There
TTITLE10=Come to Me
TTITLE11=Night Life
TTITLE12=Rainy Day Blues
EXTD=
EXTT0=
EXTT1=
EXTT2=
EXTT3=
EXTT4=
EXTT5=
EXTT6=
EXTT7=
EXTT8=
EXTT9=
EXTT10=
EXTT11=
EXTT12=
PLAYORDER=
